<svg width="33" height="32" viewBox="0 0 33 32" fill="none" xmlns="http://www.w3.org/2000/svg">
<rect width="33" height="32" fill="#1E1E1E"/>
<g id="Frame 1">
<rect x="-47" y="-218" width="1220" height="800" rx="10" fill="#11111B"/>
<g id="left_dash">
<g id="Rectangle 1">
<mask id="path-2-inside-1_0_1" fill="white">
<path d="M-47 -218H271V582H-47V-218Z"/>
</mask>
<path d="M-47 -218H271V582H-47V-218Z" fill="#11111B"/>
<path d="M270 -218V582H272V-218H270Z" fill="#313244" mask="url(#path-2-inside-1_0_1)"/>
</g>
</g>
<g id="profile_btt">
<rect id="Rectangle 2" x="-16" y="-8" width="250" height="48" rx="5" fill="#313244"/>
<path id="account_icon" d="M16.085 27.3738C12.0637 27.3738 8.50896 25.3367 6.434 22.281C6.48225 19.098 12.868 17.3473 16.085 17.3473C19.302 17.3473 25.6877 19.098 25.736 22.281C23.661 25.3367 20.1062 27.3738 16.085 27.3738ZM16.085 4.7745C17.3648 4.7745 18.5922 5.27753 19.4971 6.17292C20.4021 7.06831 20.9105 8.28272 20.9105 9.549C20.9105 10.8153 20.4021 12.0297 19.4971 12.9251C18.5922 13.8205 17.3648 14.3235 16.085 14.3235C14.8052 14.3235 13.5778 13.8205 12.6729 12.9251C11.7679 12.0297 11.2595 10.8153 11.2595 9.549C11.2595 8.28272 11.7679 7.06831 12.6729 6.17292C13.5778 5.27753 14.8052 4.7745 16.085 4.7745ZM16.085 0C13.9727 0 11.8811 0.411654 9.92954 1.21146C7.97801 2.01126 6.20482 3.18355 4.71119 4.6614C1.69466 7.64604 0 11.6941 0 15.915C0 20.1359 1.69466 24.184 4.71119 27.1686C6.20482 28.6465 7.97801 29.8187 9.92954 30.6185C11.8811 31.4183 13.9727 31.83 16.085 31.83C20.351 31.83 24.4423 30.1532 27.4588 27.1686C30.4753 24.184 32.17 20.1359 32.17 15.915C32.17 7.11401 24.9317 0 16.085 0Z" fill="white"/>
</g>
</g>
</svg>
