<svg width="22" height="34" viewBox="0 0 22 34" fill="none" xmlns="http://www.w3.org/2000/svg">
<g id="device_icon">
<path id="Vector" d="M19.7436 0H2.25641C1.65818 0.000671877 1.08464 0.238616 0.66163 0.661629C0.238616 1.08464 0.000671877 1.65818 0 2.25641V31.5897C0.000671877 32.188 0.238616 32.7615 0.66163 33.1845C1.08464 33.6075 1.65818 33.8455 2.25641 33.8462H19.7436C20.3418 33.8455 20.9154 33.6075 21.3384 33.1845C21.7614 32.7615 21.9993 32.188 22 31.5897V2.25641C21.9993 1.65818 21.7614 1.08464 21.3384 0.661629C20.9154 0.238616 20.3418 0.000671877 19.7436 0ZM19.7436 2.25641V4.51282H2.25641V2.25641H19.7436ZM19.7436 6.76923L19.7444 22.5641H2.25641V6.76923H19.7436ZM19.7436 31.5897H2.25641V24.8205H19.7447V31.5897H19.7436Z" fill="white"/>
<path id="Vector_2" d="M12.1282 27.0769H9.87183V29.3333H12.1282V27.0769Z" fill="white"/>
</g>
</svg>
