<svg width="30" height="32" viewBox="0 0 30 32" fill="none" xmlns="http://www.w3.org/2000/svg">
<g id="settings_icon">
<path id="Vector" d="M14.9997 10.0507C13.8489 10.0507 12.7239 10.3919 11.767 11.0313C10.8101 11.6707 10.0643 12.5795 9.62384 13.6427C9.18343 14.706 9.0682 15.8759 9.29272 17.0047C9.51724 18.1334 10.0714 19.1702 10.8852 19.984C11.699 20.7978 12.7358 21.352 13.8645 21.5765C14.9933 21.801 16.1633 21.6858 17.2265 21.2454C18.2898 20.805 19.1985 20.0592 19.8379 19.1023C20.4773 18.1454 20.8186 17.0203 20.8186 15.8695C20.8168 14.3268 20.2032 12.8478 19.1123 11.7569C18.0215 10.666 16.5425 10.0524 14.9997 10.0507ZM14.9997 19.5724C14.2674 19.5724 13.5515 19.3552 12.9425 18.9483C12.3336 18.5415 11.859 17.9631 11.5787 17.2865C11.2985 16.6099 11.2251 15.8654 11.368 15.1471C11.5109 14.4288 11.8635 13.769 12.3814 13.2511C12.8993 12.7333 13.5591 12.3806 14.2773 12.2377C14.9956 12.0949 15.7402 12.1682 16.4168 12.4485C17.0934 12.7287 17.6717 13.2033 18.0786 13.8123C18.4855 14.4212 18.7026 15.1371 18.7026 15.8695C18.7015 16.8512 18.3111 17.7924 17.6169 18.4866C16.9227 19.1808 15.9815 19.5713 14.9997 19.5724Z" fill="white"/>
<path id="Vector_2" d="M29.5171 20.2548L27.4164 18.5254C27.7888 16.7744 27.7888 14.9647 27.4164 13.2136L29.5171 11.4843C29.7594 11.2858 29.9231 11.0075 29.9789 10.6993C30.0347 10.3911 29.979 10.0731 29.8217 9.80222L27.6653 6.06739C27.5094 5.79565 27.2618 5.5883 26.9669 5.48252C26.672 5.37674 26.3491 5.37944 26.056 5.49014L23.5063 6.44542C22.178 5.24533 20.611 4.33965 18.9081 3.7878L18.4607 1.10512C18.41 0.79595 18.2509 0.514926 18.0119 0.312416C17.7728 0.109907 17.4695 -0.000847484 17.1562 4.88342e-06H12.8435C12.5302 -0.000836637 12.2269 0.109913 11.9879 0.312407C11.7488 0.514901 11.5897 0.795902 11.539 1.10505L11.0919 3.7878C9.38897 4.33964 7.82197 5.24532 6.49371 6.44542L3.94367 5.49001C3.65061 5.37938 3.32773 5.37673 3.03289 5.48251C2.73805 5.5883 2.49051 5.79562 2.33463 6.06733L0.178291 9.80242C0.0210249 10.0733 -0.0346683 10.3913 0.0211862 10.6995C0.0770407 11.0077 0.240794 11.286 0.483119 11.4845L2.58365 13.2136C2.21125 14.9647 2.21125 16.7744 2.58365 18.5254L0.48292 20.2548C0.240634 20.4533 0.0769257 20.7316 0.0211086 21.0398C-0.0347085 21.348 0.0210116 21.666 0.178291 21.9369L2.3347 25.6717C2.4906 25.9434 2.73817 26.1508 3.03306 26.2565C3.32794 26.3623 3.65086 26.3596 3.94393 26.249L6.49377 25.2937C7.82203 26.4938 9.38904 27.3994 11.092 27.9513L11.5391 30.634C11.5898 30.9431 11.7489 31.2241 11.9879 31.4266C12.2269 31.6291 12.5302 31.7399 12.8435 31.7391H17.1562C17.4695 31.7399 17.7728 31.6292 18.0119 31.4267C18.2509 31.2242 18.41 30.9432 18.4607 30.634L18.9079 27.9513C20.6108 27.3994 22.1778 26.4938 23.5061 25.2937L26.056 26.2491C26.3491 26.3597 26.672 26.3623 26.9668 26.2566C27.2616 26.1508 27.5092 25.9435 27.6651 25.6718L29.8213 21.9367C29.9786 21.6659 30.0344 21.3479 29.9786 21.0398C29.9229 20.7316 29.7593 20.4533 29.5171 20.2548ZM26.1689 24.0317L22.9878 22.8399L22.5061 23.3249C21.1807 24.6607 19.523 25.6188 17.7039 26.1002L17.0427 26.2745L16.4842 29.6231H13.516L12.9578 26.2745L12.2965 26.1002C10.4774 25.6188 8.81968 24.6607 7.49435 23.3249L7.01264 22.8399L3.831 24.0317L2.34713 21.461L4.96752 19.3038L4.78899 18.6444C4.29801 16.8271 4.29801 14.912 4.78899 13.0947L4.96752 12.4353L2.34713 10.2781L3.83133 7.70738L7.01244 8.89918L7.49415 8.41423C8.81949 7.07839 10.4772 6.12031 12.2963 5.63885L12.9576 5.46455L13.5157 2.11594H16.4842L17.0425 5.46455L17.7037 5.63885C19.5228 6.12031 21.1805 7.07839 22.5059 8.41423L22.9876 8.89918L26.1687 7.70738L27.653 10.278L25.0326 12.4353L25.2111 13.0947C25.7021 14.912 25.7021 16.8271 25.2111 18.6444L25.0326 19.3038L27.653 21.461L26.1689 24.0317Z" fill="white"/>
</g>
</svg>
